Coordinates
version=1
nRows=22
nColumns=24
inDegrees=yes

Units are S.I. units (second, meters, Newtons, ...)
Angles are in degrees.

endheader
time	pelvis_tilt	pelvis_list	pelvis_rotation	pelvis_tx	pelvis_ty	pelvis_tz	hip_flexion_r	hip_adduction_r	hip_rotation_r	knee_angle_r	ankle_angle_r	subtalar_angle_r	mtp_angle_r	hip_flexion_l	hip_adduction_l	hip_rotation_l	knee_angle_l	ankle_angle_l	subtalar_angle_l	mtp_angle_l	lumbar_extension	lumbar_bending	lumbar_rotation
      4.91000000	     -1.63224114	      3.42256259	      3.61891789	     -1.02019276	      0.67952946	      0.19207655	     24.26156140	      0.25781326	     10.30112756	     -0.80126402	      5.09817925	    -17.96147844	      0.00000000	    -18.85147538	     11.05411716	     20.11146307	    -13.73110854	     12.94522813	     -5.20507047	      0.00000000	    -15.78555770	     -1.57538729	    -11.37376686
      4.92000000	     -1.71394773	      2.65492775	      3.65729650	     -1.00448175	      0.67861966	      0.19226313	     25.06961558	      1.58878353	     10.83711616	     -3.85050637	      4.69707565	    -18.08551736	      0.00000000	    -17.87035795	     10.18029517	     16.14577779	    -17.19344678	     13.07627072	     -0.39509130	      0.00000000	    -15.22188399	     -0.41847865	    -11.38712859
      4.93000000	     -1.77344534	      1.70351087	      3.62685114	     -0.98867251	      0.67792772	      0.19251091	     25.99976564	      3.15790764	     10.87489387	     -7.43249185	      4.49737343	    -17.55475951	      0.00000000	    -16.67958140	      8.97941421	     12.41716464	    -20.89041708	     12.24957623	      3.62005257	      0.00000000	    -14.65598436	      0.98021611	    -11.33213429
      4.94000000	     -2.24002271	      0.73667952	      3.46242554	     -0.97290176	      0.67690698	      0.19265219	     27.67710763	      4.70018036	      9.70559467	    -11.68079596	      5.12812244	    -15.23890299	      0.00000000	    -14.82070104	      7.75448637	      9.20293659	    -24.82654649	     10.41329047	      6.57042503	      0.00000000	    -13.57223823	      2.41070942	    -11.18173063
      4.95000000	     -2.20272032	     -0.18265820	      3.25306784	     -0.95740268	      0.67659172	      0.19263976	     28.68830103	      6.08827971	      8.50201500	    -15.75237176	      5.74994924	    -13.03677710	      0.00000000	    -13.28426359	      6.47720872	      6.46049794	    -28.91859337	      7.64603721	      8.72540866	      0.00000000	    -13.27547551	      3.84505189	    -10.99367841
      4.96000000	     -2.18291790	     -1.10917381	      3.07096002	     -0.94203935	      0.67639226	      0.19233336	     29.46858662	      7.33263521	      7.42951063	    -19.39484740	      6.32422780	    -11.24504113	      0.00000000	    -11.49262012	      5.17651289	      4.28084301	    -33.17454875	      4.15880605	      9.93169585	      0.00000000	    -13.01446243	      5.33254752	    -10.86704238
      4.97000000	     -2.11105329	     -2.02018917	      3.01221915	     -0.92698290	      0.67640912	      0.19188660	     29.82675439	      8.42858886	      6.51326065	    -22.34897361	      7.00420754	    -10.00774736	      0.00000000	     -9.45593043	      3.81784122	      2.54684447	    -37.61887498	      0.22636205	     10.47752638	      0.00000000	    -12.91087195	      6.76584884	    -10.79588339
      4.98000000	     -2.17531143	     -2.91475362	      3.10576729	     -0.91248608	      0.67643480	      0.19114966	     30.00614436	      9.34270902	      5.59484911	    -24.64739121	      7.94664242	     -8.96995298	      0.00000000	     -6.93293734	      2.50304499	      1.35225220	    -42.22961439	     -3.97811603	     10.01489604	      0.00000000	    -12.77560526	      8.17652027	    -10.85715063
      4.99000000	     -2.32041591	     -3.81001390	      3.23206993	     -0.89850806	      0.67652414	      0.19050436	     29.92232009	     10.20461094	      4.70565024	    -26.22744872	      9.03616383	     -8.32531858	      0.00000000	     -4.05769268	      1.18754174	      0.44858041	    -46.84600205	     -8.05434640	      8.87131866	      0.00000000	    -12.66032709	      9.46986876	    -10.79791605
      5.00000000	     -2.42457803	     -4.81720672	      3.45615150	     -0.88495379	      0.67682563	      0.18991318	     29.37892681	     11.15026087	      3.98320451	    -26.98760782	     10.29468179	     -8.00894541	      0.00000000	     -1.01221979	     -0.24862885	     -0.16643942	    -51.37532000	    -11.56334833	      7.05509862	      0.00000000	    -12.66364800	     10.79382108	    -10.71176685
      5.01000000	     -2.84104141	     -5.89566216	      3.60275900	     -0.87163088	      0.67698403	      0.18943760	     28.84640062	     12.14451090	      3.31904904	    -27.12337836	     11.69858574	     -7.53548552	      0.00000000	      2.47724125	     -1.67165170	     -0.50521387	    -55.69451241	    -14.09185755	      5.01737533	      0.00000000	    -12.25651691	     12.09187468	    -10.40016878
      5.02000000	     -2.87592516	     -6.95998228	      3.65865239	     -0.85863330	      0.67792695	      0.18926428	     27.58586844	     13.25437991	      2.91249233	    -26.64835404	     12.85678866	     -7.45064458	      0.00000000	      5.53356975	     -3.08541381	     -0.78100477	    -59.57031818	    -15.43258550	      2.75014290	      0.00000000	    -12.44264870	     13.22880852	     -9.80292784
      5.03000000	     -3.17752476	     -7.91375052	      3.68896554	     -0.84560355	      0.67894788	      0.18915391	     26.28452727	     14.27361908	      2.89092218	    -25.66079400	     13.94994680	     -7.38525651	      0.00000000	      8.82550293	     -4.27588442	     -0.77612454	    -62.98999935	    -15.49774838	      0.67793937	      0.00000000	    -12.18036805	     14.14863926	     -9.26887276
      5.04000000	     -3.28683472	     -8.65491550	      3.49582062	     -0.83262291	      0.68060660	      0.18932034	     24.57448374	     15.19273897	      3.18424468	    -24.42186892	     14.82661466	     -7.25594689	      0.00000000	     11.68368996	     -5.23875723	     -0.87158598	    -65.76452369	    -14.08413857	     -0.96642642	      0.00000000	    -12.21720956	     14.70457199	     -8.40820000
      5.05000000	     -3.52022026	     -9.15112447	      3.35229757	     -0.81950056	      0.68254990	      0.18957815	     22.70374776	     15.90496519	      4.08914113	    -22.77702972	     15.28601089	     -7.71070090	      0.00000000	     14.52944108	     -5.90263016	     -0.79947861	    -67.92754730	    -11.71375141	     -2.04910299	      0.00000000	    -11.96909554	     14.89561436	     -7.73628203
      5.06000000	     -3.53119054	     -9.28486100	      3.12090144	     -0.80642463	      0.68514409	      0.18991958	     20.47080745	     16.28139786	      5.36496539	    -21.05396704	     15.53193152	     -8.19264714	      0.00000000	     16.87262346	     -6.19696454	     -0.87191622	    -69.34277092	     -8.71733003	     -2.81203592	      0.00000000	    -12.05106992	     14.60941570	     -7.02033392
      5.07000000	     -3.46992779	     -9.18821343	      2.92474668	     -0.79334300	      0.68806377	      0.19020161	     18.04342007	     16.39385080	      6.97330290	    -19.17807979	     15.36386978	     -9.09978415	      0.00000000	     18.95663158	     -6.25556025	     -1.00072279	    -70.11063860	     -5.57205905	     -3.44636320	      0.00000000	    -12.19463569	     14.05465960	     -6.33550924
      5.08000000	     -3.49190275	     -8.79346478	      2.63722576	     -0.78035216	      0.69092997	      0.19053458	     15.74903865	     16.13575018	      8.60292406	    -17.43335531	     15.28651735	     -9.74300103	      0.00000000	     20.92466323	     -6.02629076	     -1.29697787	    -70.27978376	     -2.46453045	     -3.81021483	      0.00000000	    -12.25770308	     13.13116833	     -5.70312302
      5.09000000	     -3.45912404	     -8.17614091	      2.47768197	     -0.76736445	      0.69386998	      0.19072137	     13.29789570	     15.59649693	     10.66500487	    -15.49817177	     14.66671166	    -11.29768742	      0.00000000	     22.65712866	     -5.53166725	     -1.60301821	    -69.83979725	      0.17313098	     -4.38136149	      0.00000000	    -12.35782454	     11.97625865	     -5.39549082
      5.10000000	     -3.61150964	     -7.44508823	      2.15356361	     -0.75463131	      0.69631977	      0.19088019	     11.22570620	     14.84100059	     12.42056613	    -13.83595695	     14.42518442	    -12.12778346	      0.00000000	     24.44306820	     -4.93871134	     -2.09011196	    -68.96119769	      2.33144137	     -5.06890723	      0.00000000	    -12.32597840	     10.72396866	     -4.81843389
      5.11000000	     -3.59315531	     -6.72852929	      2.06170693	     -0.74185691	      0.69867330	      0.19082419	      8.83304307	     14.04143238	     14.62685177	    -11.83168554	     13.35161736	    -14.37271708	      0.00000000	     25.91410444	     -4.30311141	     -2.40469121	    -67.62002079	      4.10298071	     -5.80533826	      0.00000000	    -12.47436332	      9.55149797	     -4.62913017
      5.12000000	     -3.74601933	     -5.98470212	      1.73384925	     -0.72928478	      0.70041678	      0.19084356	      6.82390917	     13.14921997	     16.47167363	    -10.12647223	     12.68260942	    -15.87885778	      0.00000000	     27.39280728	     -3.71728239	     -2.97697655	    -65.86138297	      5.38659845	     -6.81756201	      0.00000000	    -12.50141471	      8.38232684	     -4.22319202
